<svg xmlns="http://www.w3.org/2000/svg" width="1920" height="1080" viewBox="0 0 1920 1080">
  <defs>
    <pattern id="grid" width="80" height="80" patternUnits="userSpaceOnUse">
      <path d="M80 0H0V80" fill="none" stroke="#ffffff" stroke-opacity="0.045" stroke-width="1"/>
    </pattern>
  </defs>

  <rect width="1920" height="1080" fill="#131313"/>
  <rect width="1920" height="1080" fill="url(#grid)"/>

  <line x1="0" y1="0" x2="1920" y2="0" stroke="#9fcaff" stroke-opacity="0.5" stroke-width="1"/>
  <line x1="0" y1="1079" x2="1920" y2="1079" stroke="#9fcaff" stroke-opacity="0.25" stroke-width="1"/>
  <line x1="1152" y1="0" x2="1152" y2="1080" stroke="#ffffff" stroke-opacity="0.1" stroke-width="1"/>

  <text x="1152" y="30" text-anchor="middle" font-family="JetBrainsMono Nerd Font Mono, monospace" font-size="14" letter-spacing="8" fill="#89919e">PLANIMETRIA / CIRCUITO</text>

  <g id="plan-title">
    <text x="240" y="190" font-family="JetBrainsMono Nerd Font Mono, monospace" font-size="20" letter-spacing="6" fill="#e5e2e1">PLANTA NIVEL 1</text>
    <text x="240" y="212" font-family="JetBrainsMono Nerd Font Mono, monospace" font-size="16" letter-spacing="3" fill="#89919e">ESC 1:50</text>
    <line x1="920" y1="180" x2="920" y2="212" stroke="#89919e" stroke-width="1.5"/>
    <polygon points="916,200 924,200 920,212" fill="#89919e"/>
    <text x="920" y="172" text-anchor="middle" font-family="JetBrainsMono Nerd Font Mono, monospace" font-size="16" fill="#89919e">N</text>
  </g>

  <g id="cotas" stroke="#89919e" fill="none">
    <g stroke-opacity="0.5" stroke-width="1">
      <line x1="240" y1="258" x2="240" y2="300"/>
      <line x1="960" y1="258" x2="960" y2="300"/>
      <line x1="182" y1="300" x2="240" y2="300"/>
      <line x1="182" y1="860" x2="240" y2="860"/>
      <line x1="240" y1="860" x2="240" y2="890"/>
      <line x1="600" y1="860" x2="600" y2="890"/>
      <line x1="240" y1="300" x2="240" y2="370"/>
      <line x1="720" y1="300" x2="720" y2="370"/>
    </g>
    <g stroke-width="1.5">
      <line x1="240" y1="250" x2="960" y2="250"/>
      <line x1="190" y1="300" x2="190" y2="860"/>
      <line x1="240" y1="890" x2="600" y2="890"/>
      <line x1="240" y1="370" x2="720" y2="370"/>
      <line x1="240" y1="242" x2="240" y2="258"/>
      <line x1="960" y1="242" x2="960" y2="258"/>
      <line x1="182" y1="300" x2="198" y2="300"/>
      <line x1="182" y1="860" x2="198" y2="860"/>
      <line x1="240" y1="882" x2="240" y2="898"/>
      <line x1="600" y1="882" x2="600" y2="898"/>
      <line x1="240" y1="362" x2="240" y2="378"/>
      <line x1="720" y1="362" x2="720" y2="378"/>
    </g>
    <g font-family="JetBrainsMono Nerd Font Mono, monospace" font-size="20" letter-spacing="2" fill="#9fcaff" stroke="none">
      <text x="600" y="232" text-anchor="middle">7.20</text>
      <text x="172" y="578" text-anchor="middle" transform="rotate(-90 172 578)">5.60</text>
      <text x="420" y="878" text-anchor="middle">3.60</text>
      <text x="480" y="358" text-anchor="middle">4.80</text>
    </g>
  </g>

  <g id="walls" stroke="#e5e2e1" fill="none" stroke-linecap="square">
    <g stroke-width="8">
      <line x1="240" y1="300" x2="960" y2="300"/>
      <line x1="240" y1="860" x2="420" y2="860"/>
      <line x1="480" y1="860" x2="960" y2="860"/>
      <line x1="240" y1="300" x2="240" y2="620"/>
      <line x1="240" y1="720" x2="240" y2="860"/>
      <line x1="960" y1="300" x2="960" y2="360"/>
      <line x1="960" y1="460" x2="960" y2="620"/>
      <line x1="960" y1="720" x2="960" y2="860"/>
    </g>
    <g stroke-width="6">
      <line x1="240" y1="540" x2="400" y2="540"/>
      <line x1="460" y1="540" x2="780" y2="540"/>
      <line x1="840" y1="540" x2="960" y2="540"/>
      <line x1="720" y1="300" x2="720" y2="380"/>
      <line x1="720" y1="440" x2="720" y2="540"/>
      <line x1="600" y1="540" x2="600" y2="680"/>
      <line x1="600" y1="740" x2="600" y2="860"/>
    </g>
  </g>

  <g id="doors" stroke="#89919e" fill="none" stroke-width="1.5">
    <path d="M480,860 A60,60 0 0 0 420,800"/>
    <line x1="420" y1="860" x2="420" y2="800"/>
    <path d="M460,540 A60,60 0 0 1 400,600"/>
    <line x1="400" y1="540" x2="400" y2="600"/>
    <path d="M840,540 A60,60 0 0 1 780,600"/>
    <line x1="780" y1="540" x2="780" y2="600"/>
    <path d="M720,440 A60,60 0 0 1 660,380"/>
    <line x1="720" y1="380" x2="660" y2="380"/>
    <path d="M600,740 A60,60 0 0 0 660,680"/>
    <line x1="600" y1="680" x2="660" y2="680"/>
  </g>

  <g id="windows" stroke="#bfc7d5" fill="none" stroke-width="2">
    <line x1="360" y1="296" x2="480" y2="296"/>
    <line x1="360" y1="304" x2="480" y2="304"/>
    <line x1="360" y1="293" x2="360" y2="307"/>
    <line x1="480" y1="293" x2="480" y2="307"/>
    <line x1="954" y1="360" x2="954" y2="460"/>
    <line x1="966" y1="360" x2="966" y2="460"/>
    <line x1="951" y1="360" x2="969" y2="360"/>
    <line x1="951" y1="460" x2="969" y2="460"/>
    <line x1="234" y1="620" x2="234" y2="720"/>
    <line x1="246" y1="620" x2="246" y2="720"/>
    <line x1="231" y1="620" x2="249" y2="620"/>
    <line x1="231" y1="720" x2="249" y2="720"/>
    <line x1="954" y1="620" x2="954" y2="720"/>
    <line x1="966" y1="620" x2="966" y2="720"/>
    <line x1="951" y1="620" x2="969" y2="620"/>
    <line x1="951" y1="720" x2="969" y2="720"/>
  </g>

  <g id="rooms" font-family="JetBrainsMono Nerd Font Mono, monospace" font-size="18" letter-spacing="4" fill="#bfc7d5" text-anchor="middle">
    <text x="480" y="430">SALA</text>
    <text x="480" y="456">COMEDOR</text>
    <text x="840" y="425">COCINA</text>
    <text x="420" y="705">DORMITORIO</text>
    <text x="780" y="705">BAÑO</text>
  </g>

  <g id="chip" stroke="#89919e" stroke-width="2">
    <rect x="1480" y="440" width="160" height="120" fill="#1f1f1f"/>
    <text x="1560" y="508" text-anchor="middle" font-family="JetBrainsMono Nerd Font Mono, monospace" font-size="18" letter-spacing="3" fill="#e5e2e1" stroke="none">IC-01</text>
    <line x1="1460" y1="470" x2="1480" y2="470"/>
    <line x1="1460" y1="530" x2="1480" y2="530"/>
    <line x1="1640" y1="470" x2="1660" y2="470"/>
    <line x1="1640" y1="530" x2="1660" y2="530"/>
    <line x1="1520" y1="560" x2="1520" y2="580"/>
    <line x1="1600" y1="560" x2="1600" y2="580"/>
  </g>

  <g id="traces" stroke="#e5e2e1" stroke-width="1.5" fill="none">
    <path d="M1230,340 L1320,340 L1320,470 L1460,470"/>
    <path d="M1230,540 L1320,540 L1320,530 L1460,530"/>
    <path d="M1660,470 L1740,470 L1740,405 L1805,340 L1840,340"/>
    <path d="M1660,530 L1740,530 L1740,620 L1840,620"/>
    <path d="M1600,580 L1600,640 L1680,640 L1680,700"/>
    <path d="M1520,580 L1520,640 L1440,640 L1440,700"/>
  </g>

  <g id="circuit-accents" stroke="#9fcaff" stroke-width="1.5" fill="none">
    <path d="M1230,340 L1320,340 L1320,470 L1460,470"/>
    <path d="M1660,470 L1740,470 L1740,405 L1805,340 L1840,340"/>
  </g>

  <g id="pads" fill="none" stroke="#e5e2e1" stroke-width="1.5">
    <rect x="1226" y="336" width="8" height="8"/>
    <rect x="1226" y="536" width="8" height="8"/>
    <rect x="1836" y="336" width="8" height="8"/>
    <rect x="1836" y="616" width="8" height="8"/>
    <rect x="1676" y="696" width="8" height="8"/>
    <rect x="1436" y="696" width="8" height="8"/>
    <rect x="1196" y="196" width="8" height="8"/>
  </g>

  <g id="ground" stroke="#89919e" stroke-width="2" fill="none">
    <line x1="1440" y1="700" x2="1440" y2="730"/>
    <line x1="1430" y1="730" x2="1450" y2="730"/>
    <line x1="1432" y1="722" x2="1448" y2="722"/>
    <line x1="1434" y1="714" x2="1446" y2="714"/>
  </g>

  <g id="capacitor" stroke="#89919e" stroke-width="2" fill="none">
    <line x1="1820" y1="170" x2="1820" y2="230"/>
    <line x1="1820" y1="250" x2="1820" y2="320"/>
    <line x1="1814" y1="230" x2="1814" y2="250"/>
    <line x1="1826" y1="230" x2="1826" y2="250"/>
    <rect x="1816" y="166" width="8" height="8"/>
  </g>

  <g id="resistor" stroke="#89919e" stroke-width="2" fill="none">
    <line x1="1210" y1="820" x2="1248" y2="820"/>
    <line x1="1272" y1="820" x2="1290" y2="820"/>
    <rect x="1248" y="815" width="24" height="10"/>
    <rect x="1206" y="816" width="8" height="8"/>
    <rect x="1286" y="816" width="8" height="8"/>
  </g>

  <g id="bits" stroke="#e5e2e1" stroke-width="1.5" fill="none">
    <line x1="1200" y1="920" x2="1400" y2="920"/>
    <rect x="1210" y="908" width="24" height="24"/>
    <rect x="1250" y="908" width="24" height="24"/>
    <rect x="1290" y="908" width="24" height="24"/>
    <rect x="1330" y="908" width="24" height="24"/>
    <text x="1222" y="925" text-anchor="middle" font-family="JetBrainsMono Nerd Font Mono, monospace" font-size="14" fill="#e5e2e1" stroke="none">1</text>
    <text x="1262" y="925" text-anchor="middle" font-family="JetBrainsMono Nerd Font Mono, monospace" font-size="14" fill="#e5e2e1" stroke="none">0</text>
    <text x="1302" y="925" text-anchor="middle" font-family="JetBrainsMono Nerd Font Mono, monospace" font-size="14" fill="#e5e2e1" stroke="none">1</text>
    <text x="1342" y="925" text-anchor="middle" font-family="JetBrainsMono Nerd Font Mono, monospace" font-size="14" fill="#e5e2e1" stroke="none">1</text>
  </g>

  <g id="decoration" stroke="#89919e" stroke-opacity="0.6" stroke-width="1" fill="none">
    <path d="M1600,160 L1700,160 L1700,240"/>
    <path d="M1560,960 L1560,860"/>
    <path d="M1840,760 L1900,820"/>
    <path d="M1180,260 L1180,180 L1240,180"/>
    <circle cx="1330" cy="405" r="2.5" fill="#89919e"/>
    <circle cx="1780" cy="530" r="2.5" fill="#89919e"/>
    <circle cx="1600" cy="640" r="2.5" fill="#89919e"/>
  </g>

  <g id="bus" stroke="#89919e" stroke-width="1" fill="none">
    <line x1="1860" y1="160" x2="1860" y2="900" stroke-opacity="0.7"/>
    <text x="1872" y="520" transform="rotate(-90 1872 520)" font-family="JetBrainsMono Nerd Font Mono, monospace" font-size="14" letter-spacing="3" fill="#89919e" stroke="none">BUS-8</text>
  </g>

  <g id="labels" font-family="JetBrainsMono Nerd Font Mono, monospace" font-size="15" letter-spacing="2" fill="#bfc7d5" text-anchor="middle" stroke="none">
    <text x="1230" y="325">CLK</text>
    <text x="1230" y="525">DATA</text>
    <text x="1840" y="325">BIT-0</text>
    <text x="1840" y="605">BIT-1</text>
    <text x="1680" y="685">VCC</text>
    <text x="1440" y="748">GND</text>
    <text x="1204" y="186">RST</text>
    <text x="1250" y="808">R1</text>
    <text x="1300" y="955">BIT-REG</text>
    <text x="1300" y="200" font-size="14" fill="#89919e">BUS</text>
  </g>
</svg>
